<svg width="326" height="417" viewBox="0 0 326 417" fill="none" xmlns="http://www.w3.org/2000/svg">
<path d="M263.721 297.941C282.215 304.83 293.215 322.214 303.41 360.264" stroke="#333333" stroke-width="26.8969" stroke-linecap="round"/>
<path d="M216.125 394.6C198.373 423.167 155.223 423.167 137.471 394.6L93.7721 324.278C75.5919 295.022 97.5796 257.924 133.099 257.924L220.497 257.924C256.016 257.924 278.004 295.022 259.824 324.278L216.125 394.6Z" fill="url(#paint0_linear_324_85)"/>
<path d="M221.46 394.6C205.593 423.167 167.027 423.167 151.161 394.6L112.104 324.278C95.8549 295.022 115.507 257.924 147.253 257.924L225.367 257.924C257.113 257.924 276.765 295.022 260.516 324.278L221.46 394.6Z" fill="url(#paint1_linear_324_85)"/>
<path d="M57.3843 157.603C57.8317 151.641 63.027 147.171 68.9884 147.619C74.9497 148.066 79.4197 153.261 78.9724 159.223L75.5361 205.015C75.0887 210.977 69.8934 215.447 63.9321 214.999C57.9707 214.552 53.5007 209.357 53.948 203.395L57.3843 157.603Z" fill="#00429D"/>
<path d="M67.67 169.574C71.9949 111.939 121.124 68.6404 177.403 72.8636L220.881 76.1262C277.159 80.3494 320.085 119.718 315.76 177.353L312.68 218.4C310.315 249.907 283.458 273.577 252.693 271.268L116.824 261.073C86.058 258.764 63.0342 231.351 65.3985 199.844L67.67 169.574Z" fill="#00429D"/>
<path d="M67.6166 170.276C71.3201 120.924 114.997 83.9682 165.171 87.7334L203.933 90.6421C254.108 94.4072 291.78 137.467 288.076 186.82L285.439 221.968C283.414 248.947 259.538 269.149 232.109 267.091L110.977 258.001C83.5487 255.943 62.9545 232.404 64.9791 205.424L67.6166 170.276Z" fill="#0258CC"/>
<path d="M293.75 172.578C294.219 166.327 301.629 161.787 310.3 162.438C318.971 163.089 325.62 168.683 325.151 174.934L321.548 222.95C321.079 229.201 313.669 233.74 304.998 233.09C296.327 232.439 289.678 226.844 290.147 220.594L293.75 172.578Z" fill="#0258CC"/>
<path d="M212.433 129.437C238.783 145.942 255.327 176.135 252.839 209.295C250.884 235.345 228.181 254.879 202.131 252.924L121.801 246.896C95.7506 244.941 76.2177 222.238 78.1725 196.188C80.6198 163.576 100.842 136.548 128.638 123.88C139.65 127.089 153.49 129.542 168.61 130.677C185.222 131.923 200.543 131.367 212.433 129.437Z" fill="#C0C7FF"/>
<path d="M287.665 364.201C287.665 373.983 295.595 381.914 305.378 381.914C315.16 381.914 323.09 373.983 323.09 364.201C323.09 354.418 315.16 346.488 305.378 346.488C295.595 346.488 287.665 354.418 287.665 364.201Z" fill="#0258CC"/>
<path d="M215.797 129.689C239.15 146.451 253.467 174.622 251.158 205.384C249.232 231.052 226.863 250.298 201.196 248.372L119.479 242.24C93.8118 240.314 74.565 217.945 76.491 192.277C78.7544 162.115 96.4505 136.8 121.264 123.486C132.965 127.511 148.879 130.634 166.54 131.96C185.81 133.406 203.343 132.425 215.797 129.689Z" fill="white"/>
<ellipse cx="169.496" cy="123.253" rx="52.1538" ry="10.8244" transform="rotate(4.29147 169.496 123.253)" fill="#0258CC"/>
<path d="M218.081 83.8149C238.314 61.8987 243.581 29.3059 243.584 7.41408C243.585 2.0765 237.511 -0.204715 234.109 3.90798C214.217 27.9535 208.98 59.535 208.932 80.0813C208.92 85.1888 214.616 87.5677 218.081 83.8149Z" fill="#0258CC"/>
<path d="M160.416 76.0614C172.08 50.9478 166.25 22.4447 159.034 4.55926C157.274 0.198491 150.852 0.498819 149.031 5.07095C138.387 31.8027 143.912 59.4691 150.642 76.2712C152.316 80.448 158.418 80.3618 160.416 76.0614Z" fill="#0258CC"/>
<path d="M121.813 171.319C124.161 171.495 125.922 173.541 125.746 175.89L123.292 208.6C123.115 210.948 121.068 212.708 118.72 212.532C116.372 212.356 114.611 210.31 114.787 207.961L117.242 175.252C117.418 172.903 119.464 171.143 121.813 171.319Z" stroke="black" stroke-width="13.1205"/>
<path d="M123.931 173.78C123.728 176.49 121.366 178.522 118.656 178.319C115.947 178.115 113.915 175.754 114.118 173.044C114.321 170.334 116.683 168.303 119.393 168.506C122.102 168.709 124.134 171.071 123.931 173.78Z" fill="white"/>
<path d="M198.362 177.721L179.533 195.525L195.494 215.94" stroke="black" stroke-width="13.1205" stroke-linecap="round"/>
<path d="M98.5863 283.51C80.0922 290.398 46.5775 293.35 69.5388 314.671" stroke="#333333" stroke-width="26.8969" stroke-linecap="round"/>
<path d="M83.9707 271.701L104.635 348.823" stroke="#E6A100" stroke-width="13.1205" stroke-linecap="round"/>
<path d="M82.002 273.013L102.667 350.134" stroke="#ECF62C" stroke-width="13.1205" stroke-linecap="round"/>
<path d="M41.0144 187.322C55.7181 176.689 81.1916 182.287 97.4228 204.734C113.654 227.18 110.99 253.125 96.2862 263.757C81.5825 274.39 56.1096 268.791 39.8786 246.345C23.6475 223.899 26.311 197.954 41.0144 187.322Z" stroke="#E5A100" stroke-width="13.7765"/>
<path d="M38.3904 190.602C53.0941 179.969 78.5676 185.568 94.7987 208.014C111.03 230.46 108.366 256.405 93.6622 267.038C78.9584 277.67 53.4856 272.071 37.2546 249.625C21.0235 227.179 23.687 201.234 38.3904 190.602Z" stroke="#ECF62C" stroke-width="13.7765"/>
<path d="M91.1869 311.718C91.1869 321.501 83.2567 329.431 73.4743 329.431C63.6919 329.431 55.7617 321.501 55.7617 311.718C55.7617 301.936 63.6919 294.006 73.4743 294.006C83.2567 294.006 91.1869 301.936 91.1869 311.718Z" fill="#0258CC"/>
<path d="M215.527 293.773C215.601 291.003 217.909 288.818 220.682 288.892L242.774 289.484C245.547 289.558 247.735 291.864 247.66 294.633L246.788 327.23C246.713 329.999 244.405 332.184 241.632 332.11L219.541 331.518C216.768 331.444 214.58 329.139 214.654 326.369L215.527 293.773Z" fill="#1B1C23"/>
<path d="M216.036 294.089C216.11 291.319 218.418 289.134 221.191 289.209L243.283 289.8C246.056 289.875 248.243 292.18 248.169 294.95L247.296 327.546C247.222 330.316 244.914 332.501 242.141 332.426L220.049 331.835C217.276 331.761 215.089 329.455 215.163 326.686L216.036 294.089Z" fill="#231B58"/>
<path d="M220.425 298.625C220.499 295.862 222.776 293.682 225.51 293.756L239.871 294.14C242.606 294.213 244.763 296.512 244.689 299.275L244.166 318.781C244.092 321.544 241.815 323.724 239.081 323.651L224.72 323.266C221.985 323.193 219.828 320.894 219.902 318.132L220.425 298.625Z" fill="#D7D1ED"/>
<path d="M221.732 298.517C221.806 295.755 224.083 293.575 226.818 293.648L241.178 294.033C243.913 294.106 246.07 296.405 245.996 299.167L245.474 318.674C245.4 321.436 243.123 323.616 240.388 323.543L226.028 323.159C223.293 323.085 221.136 320.787 221.21 318.024L221.732 298.517Z" fill="white"/>
<defs>
<linearGradient id="paint0_linear_324_85" x1="176.798" y1="257.924" x2="176.798" y2="416.025" gradientUnits="userSpaceOnUse">
<stop stop-color="#022C66"/>
<stop offset="1" stop-color="#0348A5"/>
</linearGradient>
<linearGradient id="paint1_linear_324_85" x1="186.31" y1="257.924" x2="186.31" y2="416.025" gradientUnits="userSpaceOnUse">
<stop stop-color="#00429D"/>
<stop offset="1" stop-color="#0258CC"/>
</linearGradient>
</defs>
</svg>
