<svg   width="211" height="304" viewBox="0 0 211 304" fill="none" xmlns="http://www.w3.org/2000/svg" preserveAspectRatio="xMinYMax slice">
<path d="M62.1405 210.964C55.0415 202.971 32.0291 254.72 18.043 246" stroke="#333333" stroke-width="18.41" stroke-linecap="round"/>
<path d="M99.5286 284.698C114.246 302.815 143.974 299.057 153.719 277.847L177.707 225.637C187.687 203.916 169.31 180.296 144.838 183.39L84.6228 191.002C60.1508 194.096 48.2303 221.547 63.3018 240.101L99.5286 284.698Z" fill="url(#paint0_linear_302_339)"/>
<path d="M95.8087 285.17C109.209 303.454 135.738 300.1 144.166 279.056L164.913 227.256C173.545 205.706 156.798 181.879 134.96 184.64L81.2271 191.433C59.3892 194.194 49.0993 221.439 62.8225 240.163L95.8087 285.17Z" fill="url(#paint1_linear_302_339)"/>
<path d="M15.6705 126.927C15.3261 122.792 18.3992 119.16 22.5346 118.816C26.6699 118.471 30.3015 121.545 30.646 125.68L33.2917 157.446C33.6361 161.581 30.563 165.213 26.4276 165.557C22.2923 165.902 18.6607 162.829 18.3163 158.693L15.6705 126.927Z" fill="#00429D"/>
<path d="M24.0255 134.01C20.6956 94.0291 49.6443 58.9823 88.6843 55.7307L118.845 53.2187C157.885 49.9671 191.61 72.266 194.94 112.247L197.311 140.721C199.132 162.577 183.306 181.736 161.964 183.513L67.7134 191.363C46.3715 193.141 27.5948 176.864 25.7744 155.008L24.0255 134.01Z" fill="#00429D"/>
<path d="M27.5731 122.621C24.7217 88.3854 50.6256 58.2823 85.4311 55.3834L112.32 53.1438C147.126 50.2449 177.653 75.6479 180.504 109.883L182.535 134.265C184.094 152.98 169.933 169.437 150.906 171.022L66.8778 178.02C47.8507 179.605 31.1626 165.718 29.6039 147.003L27.5731 122.621Z" fill="#0258CC"/>
<path d="M185.396 110.906C185.035 106.57 189.618 102.648 195.633 102.147C201.648 101.646 206.817 104.755 207.179 109.092L209.953 142.4C210.314 146.736 205.731 150.657 199.715 151.158C193.7 151.659 188.531 148.55 188.17 144.214L185.396 110.906Z" fill="#0258CC"/>
<path d="M120.973 73.6803C140.838 82.1169 155.476 101.007 157.392 124.008C158.897 142.079 145.467 157.949 127.396 159.454L71.6722 164.095C53.6012 165.6 37.7314 152.171 36.2263 134.1C34.3421 111.476 45.254 90.7398 62.9254 79.0207C70.8253 80.0179 80.5822 80.1881 91.0733 79.3143C102.594 78.3547 113.035 76.301 120.973 73.6803Z" fill="#C0C7FF"/>
<path d="M25.9617 242.211C26.8143 248.955 22.0386 255.113 15.2949 255.965C8.55114 256.818 2.39312 252.042 1.54054 245.298C0.687963 238.555 5.46367 232.397 12.2074 231.544C18.9511 230.691 25.1091 235.467 25.9617 242.211Z" fill="#0258CC"/>
<path d="M123.279 73.3189C141.118 82.2587 154.009 100.007 155.787 121.347C157.27 139.152 144.038 154.788 126.233 156.271L69.5465 160.992C51.7412 162.475 36.1054 149.244 34.6224 131.439C32.8797 110.515 42.2452 91.2287 57.8013 79.3919C66.2616 80.8733 77.5114 81.277 89.7617 80.2567C103.129 79.1433 115.04 76.5547 123.279 73.3189Z" fill="white"/>
<ellipse cx="107.294" cy="71.8301" rx="36.2021" ry="7.51364" transform="rotate(6.69555 107.294 71.8301)" fill="#0258CC"/>
<path d="M117.767 58.7946C129.243 41.5614 129.294 18.644 126.905 3.63692C126.322 -0.0220562 121.91 -0.922536 120.027 2.26828C109.017 20.9239 108.876 43.1449 111.088 57.2345C111.637 60.7369 115.802 61.7455 117.767 58.7946Z" fill="#0258CC"/>
<path d="M117.767 58.7946C129.243 41.5614 129.294 18.644 126.905 3.63692C126.322 -0.0220562 121.91 -0.922536 120.027 2.26828C109.017 20.9239 108.876 43.1449 111.088 57.2345C111.637 60.7369 115.802 61.7455 117.767 58.7946Z" fill="#0258CC"/>

<path d="M74.6974 57.9761C79.9504 39.4869 72.8409 20.5849 65.9409 9.11264C64.2586 6.31551 59.8887 7.22284 59.1401 10.5558C54.7634 30.0428 61.5718 48.4047 68.0208 59.1873C69.6239 61.8678 73.7979 61.1421 74.6974 57.9761Z" fill="#0258CC"/>
<path d="M74.6974 57.9761C79.9504 39.4869 72.8409 20.5849 65.9409 9.11264C64.2586 6.31551 59.8887 7.22284 59.1401 10.5558C54.7634 30.0428 61.5718 48.4047 68.0208 59.1873C69.6239 61.8678 73.7979 61.1421 74.6974 57.9761Z" fill="#0258CC"/>
<path d="M59.6362 102.908C63.7715 102.564 67.4031 105.637 67.7476 109.773L69.6374 132.463C69.9818 136.598 66.9086 140.229 62.7733 140.574C58.638 140.918 55.0063 137.845 54.6619 133.71L52.7721 111.02C52.4277 106.884 55.5008 103.253 59.6362 102.908Z" fill="black"/>
<path d="M59.6362 102.908C63.7715 102.564 67.4031 105.637 67.7476 109.773L69.6374 132.463C69.9818 136.598 66.9086 140.229 62.7733 140.574C58.638 140.918 55.0063 137.845 54.6619 133.71L52.7721 111.02C52.4277 106.884 55.5008 103.253 59.6362 102.908Z" stroke="black"/>
<path d="M96.601 100.14C100.736 99.7954 104.368 102.869 104.712 107.004L106.602 129.694C106.947 133.829 103.873 137.461 99.7381 137.805C95.6028 138.15 91.9712 135.077 91.6268 130.941L89.7369 108.251C89.3925 104.116 92.4657 100.484 96.601 100.14Z" fill="black"/>
<path d="M96.601 100.14C100.736 99.7954 104.368 102.869 104.712 107.004L106.602 129.694C106.947 133.829 103.873 137.461 99.7381 137.805C95.6028 138.15 91.9712 135.077 91.6268 130.941L89.7369 108.251C89.3925 104.116 92.4657 100.484 96.601 100.14Z" stroke="black"/>
<path d="M61.7389 108.903C61.8955 110.783 60.4986 112.434 58.6189 112.59C56.7392 112.747 55.0885 111.35 54.9319 109.47C54.7754 107.591 56.1722 105.94 58.0519 105.783C59.9317 105.627 61.5824 107.024 61.7389 108.903Z" fill="white"/>
<path d="M98.6999 106.135C98.8564 108.015 97.4595 109.666 95.5798 109.822C93.7001 109.979 92.0494 108.582 91.8928 106.702C91.7363 104.822 93.1332 103.172 95.0129 103.015C96.8926 102.859 98.5433 104.255 98.6999 106.135Z" fill="white"/>
<path d="M144.467 203.659C144.174 201.758 142.395 200.454 140.492 200.747L125.329 203.078C123.426 203.37 122.12 205.148 122.412 207.049L125.852 229.421C126.144 231.322 127.923 232.626 129.827 232.333L144.989 230.002C146.892 229.71 148.198 227.932 147.906 226.031L144.467 203.659Z" fill="#1B1C23"/>
<path d="M144.142 203.923C143.85 202.022 142.07 200.718 140.167 201.011L125.005 203.341C123.102 203.634 121.796 205.412 122.088 207.313L125.527 229.685C125.82 231.586 127.599 232.889 129.502 232.597L144.665 230.266C146.568 229.974 147.874 228.195 147.582 226.295L144.142 203.923Z" fill="#231B58"/>
<path d="M141.512 207.428C141.221 205.532 139.463 204.229 137.586 204.517L127.73 206.032C125.853 206.321 124.567 208.092 124.859 209.988L126.917 223.376C127.208 225.272 128.966 226.575 130.843 226.286L140.699 224.771C142.576 224.483 143.862 222.712 143.57 220.816L141.512 207.428Z" fill="#D7D1ED"/>
<path d="M172.785 210.058C184.964 216.409 191.052 229.321 194.789 256.369" stroke="#333333" stroke-width="18.4096" stroke-linecap="round"/>
<path d="M183.296 257.746C182.444 264.49 187.219 270.648 193.963 271.5C200.707 272.353 206.865 267.577 207.717 260.834C208.57 254.09 203.794 247.932 197.05 247.079C190.307 246.227 184.149 251.002 183.296 257.746Z" fill="#0258CC"/>
<path d="M140.606 207.467C140.314 205.571 138.557 204.268 136.68 204.557L126.824 206.072C124.947 206.36 123.661 208.131 123.953 210.027L126.011 223.415C126.302 225.311 128.06 226.614 129.937 226.326L139.793 224.811C141.67 224.522 142.955 222.751 142.664 220.855L140.606 207.467Z" fill="white"/>
<defs>
<linearGradient id="paint0_linear_302_339" x1="114.73" y1="187.196" x2="128.488" y2="296.02" gradientUnits="userSpaceOnUse">
<stop stop-color="#022C66"/>
<stop offset="1" stop-color="#0348A5"/>
</linearGradient>
<linearGradient id="paint1_linear_302_339" x1="108.094" y1="188.037" x2="121.852" y2="296.861" gradientUnits="userSpaceOnUse">
<stop stop-color="#00429D"/>
<stop offset="1" stop-color="#0258CC"/>
</linearGradient>
</defs>
</svg>