<svg   width="215" height="304" viewBox="0 0 215 304" fill="none" xmlns="http://www.w3.org/2000/svg" preserveAspectRatio="xMinYMax slice">
<path d="M61.0898 210.964C53.9907 202.97 35.9783 187.917 21.9922 179.197" stroke="#333333" stroke-width="18.41" stroke-linecap="round"/>
<path d="M98.4798 284.698C113.197 302.815 142.925 299.056 152.67 277.846L176.658 225.637C186.638 203.916 168.261 180.295 143.789 183.389L83.574 191.002C59.102 194.096 47.1815 221.547 62.253 240.101L98.4798 284.698Z" fill="url(#paint0_linear_302_246)"/>
<path d="M94.7598 285.17C108.16 303.453 134.689 300.099 143.117 279.056L163.865 227.256C172.496 205.705 155.749 181.879 133.912 184.64L80.1782 191.433C58.3404 194.194 48.0504 221.439 61.7737 240.163L94.7598 285.17Z" fill="url(#paint1_linear_302_246)"/>
<path d="M22.0517 108.639C22.5355 104.518 26.2688 101.569 30.3901 102.053C34.5115 102.537 37.4603 106.27 36.9765 110.391L33.2599 142.05C32.7761 146.171 29.0429 149.12 24.9215 148.636C20.8001 148.153 17.8513 144.419 18.3351 140.298L22.0517 108.639Z" fill="#00429D"/>
<path d="M28.8331 117.24C33.5108 77.3947 68.8439 48.7963 107.752 53.3639L137.81 56.8925C176.718 61.4601 205.342 90.0135 200.665 129.859L197.333 158.237C194.776 180.019 175.461 195.653 154.191 193.156L60.2586 182.129C38.9888 179.632 23.8193 159.95 26.3764 138.167L28.8331 117.24Z" fill="#00429D"/>
<path d="M34.5737 106.783C38.5791 72.6634 69.9462 48.3053 104.634 52.3774L131.432 55.5233C166.12 59.5955 190.993 90.5559 186.988 124.675L184.135 148.975C181.945 167.627 164.798 180.943 145.835 178.717L62.0914 168.885C43.1287 166.659 29.5314 149.734 31.7211 131.082L34.5737 106.783Z" fill="#0258CC"/>
<path d="M191.578 126.649C192.085 122.328 197.356 119.395 203.35 120.099C209.345 120.803 213.794 124.877 213.286 129.198L209.389 162.393C208.882 166.715 203.611 169.648 197.616 168.944C191.622 168.24 187.173 164.166 187.681 159.845L191.578 126.649Z" fill="#0258CC"/>
<path d="M135.834 77.3696C153.627 89.5836 164.221 111.005 161.53 133.928C159.416 151.938 143.102 164.824 125.092 162.71L69.5563 156.19C51.5465 154.076 38.6603 137.762 40.7745 119.752C43.4215 97.2053 58.2348 79.0492 77.8819 71.0737C85.4263 73.6201 94.955 75.7249 105.411 76.9524C116.893 78.3003 127.533 78.3611 135.834 77.3696Z" fill="#C0C7FF"/>
<path d="M25.9637 173.94C26.8162 180.683 22.0405 186.841 15.2968 187.694C8.55309 188.547 2.39508 183.771 1.5425 177.027C0.689916 170.283 5.46563 164.125 12.2093 163.273C18.9531 162.42 25.1111 167.196 25.9637 173.94Z" fill="#0258CC"/>
<path d="M138.168 77.4736C153.876 89.7786 162.985 109.734 160.489 131.002C158.405 148.747 142.332 161.443 124.587 159.36L68.0919 152.728C50.3468 150.644 37.6507 134.571 39.7339 116.826C42.1819 95.9727 55.1916 78.931 72.7889 70.4199C80.7864 73.5522 91.7318 76.1824 103.941 77.6157C117.263 79.1796 129.451 79.0085 138.168 77.4736Z" fill="white"/>
<ellipse cx="106.245" cy="71.8302" rx="36.2021" ry="7.51364" transform="rotate(6.69555 106.245 71.8302)" fill="#0258CC"/>
<path d="M135.646 62.1434C150.316 47.533 154.918 25.0822 155.557 9.8997C155.713 6.19795 151.568 4.43903 149.089 7.19224C134.593 23.2893 130.041 45.0396 129.409 59.2876C129.253 62.8295 133.134 64.6452 135.646 62.1434Z" fill="#0258CC"/>
<path d="M135.646 62.1434C150.316 47.533 154.918 25.0822 155.557 9.8997C155.713 6.19795 151.568 4.43903 149.089 7.19224C134.593 23.2893 130.041 45.0396 129.409 59.2876C129.253 62.8295 133.134 64.6452 135.646 62.1434Z" fill="#0258CC"/>

<path d="M93.5994 52.787C102.42 35.7095 99.2068 15.772 94.723 3.1578C93.6297 0.0822465 89.1667 0.103526 87.771 3.22143C79.6108 21.4508 82.6365 40.7991 86.8152 52.6479C87.854 55.5933 92.0889 55.7112 93.5994 52.787Z" fill="#0258CC"/>
<path d="M93.5994 52.787C102.42 35.7095 99.2068 15.772 94.723 3.1578C93.6297 0.0822465 89.1667 0.103526 87.771 3.22143C79.6108 21.4508 82.6365 40.7991 86.8152 52.6479C87.854 55.5933 92.0889 55.7112 93.5994 52.787Z" fill="#0258CC"/>
<path d="M69.9156 93.8321C74.0369 94.3159 76.9858 98.0492 76.5019 102.171L73.8473 124.784C73.3634 128.905 69.6301 131.854 65.5088 131.37C61.3874 130.886 58.4386 127.153 58.9224 123.032L61.5771 100.418C62.0609 96.2971 65.7942 93.3483 69.9156 93.8321Z" fill="black"/>
<path d="M69.9156 93.8321C74.0369 94.3159 76.9858 98.0492 76.5019 102.171L73.8473 124.784C73.3634 128.905 69.6301 131.854 65.5088 131.37C61.3874 130.886 58.4386 127.153 58.9224 123.032L61.5771 100.418C62.0609 96.2971 65.7942 93.3483 69.9156 93.8321Z" stroke="black"/>
<path d="M106.691 98.4607C110.812 98.9445 113.761 102.678 113.277 106.799L110.623 129.412C110.139 133.534 106.406 136.483 102.284 135.999C98.1628 135.515 95.214 131.782 95.6978 127.66L98.3525 105.047C98.8363 100.926 102.57 97.9768 106.691 98.4607Z" fill="black"/>
<path d="M106.691 98.4607C110.812 98.9445 113.761 102.678 113.277 106.799L110.623 129.412C110.139 133.534 106.406 136.483 102.284 135.999C98.1628 135.515 95.214 131.782 95.6978 127.66L98.3525 105.047C98.8363 100.926 102.57 97.9768 106.691 98.4607Z" stroke="black"/>
<path d="M70.7823 100.125C70.5624 101.998 68.8654 103.339 66.9921 103.119C65.1187 102.899 63.7784 101.202 63.9983 99.3285C64.2182 97.4551 65.9151 96.1147 67.7885 96.3347C69.6618 96.5546 71.0022 98.2515 70.7823 100.125Z" fill="white"/>
<path d="M107.558 104.754C107.338 106.627 105.641 107.968 103.767 107.748C101.894 107.528 100.554 105.831 100.774 103.958C100.994 102.084 102.691 100.744 104.564 100.964C106.437 101.184 107.778 102.881 107.558 104.754Z" fill="white"/>
<path d="M143.416 203.659C143.124 201.758 141.344 200.454 139.441 200.747L124.279 203.077C122.375 203.37 121.069 205.148 121.362 207.049L124.801 229.421C125.093 231.322 126.873 232.626 128.776 232.333L143.938 230.002C145.841 229.71 147.147 227.931 146.855 226.031L143.416 203.659Z" fill="#1B1C23"/>
<path d="M143.096 203.922C142.803 202.021 141.024 200.718 139.12 201.01L123.958 203.341C122.055 203.634 120.749 205.412 121.041 207.313L124.48 229.685C124.773 231.585 126.552 232.889 128.456 232.597L143.618 230.266C145.521 229.973 146.827 228.195 146.535 226.294L143.096 203.922Z" fill="#231B58"/>
<path d="M140.463 207.427C140.172 205.531 138.414 204.228 136.537 204.517L126.681 206.032C124.804 206.321 123.519 208.091 123.81 209.987L125.868 223.375C126.16 225.271 127.918 226.574 129.795 226.286L139.65 224.771C141.527 224.482 142.813 222.711 142.521 220.815L140.463 207.427Z" fill="#D7D1ED"/>
<path d="M171.736 210.058C183.915 216.409 190.003 229.321 193.74 256.369" stroke="#333333" stroke-width="18.4096" stroke-linecap="round"/>
<path d="M182.249 257.746C181.397 264.49 186.172 270.648 192.916 271.5C199.66 272.353 205.818 267.577 206.67 260.833C207.523 254.09 202.747 247.932 196.004 247.079C189.26 246.226 183.102 251.002 182.249 257.746Z" fill="#0258CC"/>
<path d="M139.559 207.467C139.268 205.571 137.51 204.268 135.633 204.556L125.777 206.071C123.9 206.36 122.614 208.131 122.906 210.027L124.964 223.415C125.255 225.311 127.013 226.614 128.89 226.325L138.746 224.81C140.623 224.522 141.909 222.751 141.617 220.855L139.559 207.467Z" fill="white"/>
<g filter="url(#filter0_d_302_246)">
<path d="M187 81.5C165 85.1 97.0193 72.3333 58.0193 65C52.6273 69.6942 49.8868 72.4099 46.0195 77.5C44.4195 93.5 141.5 94.1667 196 95.5C193.503 89.4419 190.985 86.4821 187 81.5Z" fill="white"/>
</g>
<path d="M183.484 77.5C161.484 81.1 102.003 67.3333 63.0032 60C57.6112 64.6942 58.3659 62.9099 54.4986 68C52.8986 84 138.982 89.1667 193.482 90.5C190.986 84.4419 187.469 82.4821 183.484 77.5Z" fill="#FF0606"/>
<defs>
<filter id="filter0_d_302_246" x="46" y="65" width="150" height="31" filterUnits="userSpaceOnUse" color-interpolation-filters="sRGB">
<feFlood flood-opacity="0" result="BackgroundImageFix"/>
<feColorMatrix in="SourceAlpha" type="matrix" values="0 0 0 0 0 0 0 0 0 0 0 0 0 0 0 0 0 0 127 0" result="hardAlpha"/>
<feOffset dy="0.5"/>
<feComposite in2="hardAlpha" operator="out"/>
<feColorMatrix type="matrix" values="0 0 0 0 0 0 0 0 0 0 0 0 0 0 0 0 0 0 0.25 0"/>

<feBlend mode="normal" in2="BackgroundImageFix" result="effect1_dropShadow_302_246"/>
<feBlend mode="normal" in="SourceGraphic" in2="effect1_dropShadow_302_246" result="shape"/>
</filter>
<linearGradient id="paint0_linear_302_246" x1="113.681" y1="187.196" x2="127.44" y2="296.02" gradientUnits="userSpaceOnUse">
<stop stop-color="#022C66"/>
<stop offset="1" stop-color="#0348A5"/>
</linearGradient>
<linearGradient id="paint1_linear_302_246" x1="107.045" y1="188.036" x2="120.803" y2="296.86" gradientUnits="userSpaceOnUse">
<stop stop-color="#00429D"/>
<stop offset="1" stop-color="#0258CC"/>
</linearGradient>
</defs>
</svg>