<svg width="404" height="404" viewBox="0 0 404 404" fill="none" xmlns="http://www.w3.org/2000/svg">
<path d="M0 34.2544C0 15.3362 15.3362 0 34.2544 0H369.746C388.664 0 404 15.3362 404 34.2544V369.746C404 388.664 388.664 404 369.746 404H34.2544C15.3362 404 0 388.664 0 369.746V34.2544Z" fill="#00429D"/>
<path d="M0 34.2544C0 15.3362 15.3362 0 34.2544 0H369.746C388.664 0 404 15.3362 404 34.2544V355.641C404 374.559 388.664 389.895 369.746 389.895H34.2544C15.3362 389.895 0 374.559 0 355.641V34.2544Z" fill="#0258CC"/>
<path d="M266.447 107.99C308.698 130.238 337.505 174.577 337.505 225.645C337.505 265.764 304.982 298.288 264.862 298.288H141.151C101.031 298.288 68.5078 265.764 68.5078 225.645C68.5078 175.421 96.3713 131.705 137.483 109.111C154.716 112.759 176.193 114.926 199.48 114.926C225.063 114.926 248.461 112.311 266.447 107.99Z" fill="#C0C7FF"/>
<path d="M274.655 105.786C312.343 128.773 337.505 170.27 337.505 217.645C337.505 257.174 305.46 289.219 265.931 289.219H140.082C100.553 289.219 68.5079 257.174 68.5078 217.645C68.5078 171.193 92.699 130.391 129.17 107.15C147.552 111.97 172.282 114.925 199.48 114.925C229.158 114.925 255.896 111.407 274.655 105.786Z" fill="#E5E8FF"/>
<path d="M0 155.656C0 146.475 7.44257 139.033 16.6234 139.033C25.8043 139.033 33.2469 146.475 33.2469 155.656V226.18C33.2469 235.361 25.8043 242.803 16.6234 242.803C7.44257 242.803 0 235.361 0 226.18V155.656Z" fill="#00429D"/>
<path d="M370.754 155.656C370.754 146.475 378.196 139.033 387.377 139.033C396.558 139.033 404.001 146.475 404.001 155.656V226.18C404.001 235.361 396.558 242.803 387.377 242.803C378.196 242.803 370.754 235.361 370.754 226.18V155.656Z" fill="#00429D"/>
<path d="M129.965 173.862C129.965 164.681 137.407 157.238 146.588 157.238C155.769 157.238 163.212 164.681 163.212 173.862V224.236C163.212 233.417 155.769 240.859 146.588 240.859C137.407 240.859 129.965 233.417 129.965 224.236V173.862Z" fill="black"/>
<path d="M239.781 173.862C239.781 164.681 247.224 157.238 256.405 157.238C265.586 157.238 273.028 164.681 273.028 173.862V224.236C273.028 233.417 265.586 240.859 256.405 240.859C247.224 240.859 239.781 233.417 239.781 224.236V173.862Z" fill="black"/>
<path d="M150.114 170.839C150.114 175.012 146.731 178.395 142.558 178.395C138.385 178.395 135.002 175.012 135.002 170.839C135.002 166.666 138.385 163.283 142.558 163.283C146.731 163.283 150.114 166.666 150.114 170.839Z" fill="white"/>
<path d="M258.923 170.839C258.923 175.012 255.54 178.395 251.367 178.395C247.194 178.395 243.811 175.012 243.811 170.839C243.811 166.666 247.194 163.283 251.367 163.283C255.54 163.283 258.923 166.666 258.923 170.839Z" fill="white"/>
</svg>
