<svg width="172" height="226" viewBox="0 0 172 226" fill="none" xmlns="http://www.w3.org/2000/svg">
  <path
    d="M71.8325 50.9551C80.5915 45.4767 91.7087 45.4767 100.468 50.9551L151.618 82.9476C159.508 87.8825 164.3 96.5327 164.3 105.839V167.798C164.3 177.703 158.876 186.813 150.168 191.534L99.0183 219.264C90.9914 223.615 81.3089 223.615 73.282 219.264L22.1322 191.534C13.4242 186.813 8.00037 177.703 8.00033 167.798L8.00006 105.839C8.00002 96.5327 12.7925 87.8825 20.6825 82.9476L71.8325 50.9551Z"
    fill="white"
    fill-opacity="0.64"
  />
  <path
    fill-rule="evenodd"
    clip-rule="evenodd"
    d="M113.551 1.59357C115.568 -1.25445 119.64 -0.0643695 119.9 3.41584C120.863 16.2734 119.464 34.9999 110.319 49.7576C134.817 54.4151 154.394 72.9608 160.548 96.8934C161.752 95.9449 163.271 95.3778 164.923 95.3778C168.832 95.3779 172 98.5471 172 102.456V132.481C172 136.39 168.832 139.559 164.923 139.559C164.094 139.559 163.299 139.415 162.56 139.153C162.092 158.172 146.529 173.446 127.397 173.446H41.6084C22.6037 173.446 7.12113 158.373 6.45898 139.53C2.83993 139.217 0 136.182 0 132.481V102.456C0 98.5472 3.16851 95.378 7.07715 95.3778C7.67435 95.3778 8.25461 95.4524 8.80859 95.5916C14.9314 73.707 32.3352 56.5348 54.3545 50.7391C44.6505 35.8384 43.1689 16.5598 44.1533 3.41584C44.4141 -0.0643041 48.4848 -1.25434 50.502 1.59357C61.3265 16.8769 63.7885 35.6953 63.3672 49.0447C65.7985 48.766 68.2714 48.6229 70.7773 48.6229H98.2295C99.0476 48.6229 99.8621 48.6385 100.673 48.6688C100.309 35.3437 102.828 16.7339 113.551 1.59357Z"
    fill="white"
  />
</svg>
