<svg width="340" height="482" viewBox="0 0 340 482" fill="none" xmlns="http://www.w3.org/2000/svg">
<path d="M96.4995 334.828C85.3328 321.995 56.9995 297.828 34.9995 283.828" stroke="#333333" stroke-width="18.41" stroke-linecap="round"/>
<path d="M156.085 451.224C179.411 479.938 226.528 473.981 241.973 440.365L279.992 357.617C295.809 323.191 266.683 285.754 227.897 290.658L132.461 302.723C93.6747 307.627 74.7815 351.134 98.6687 380.541L156.085 451.224Z" fill="url(#paint0_linear_324_87)"/>
<path d="M150.182 451.972C171.421 480.95 213.467 475.634 226.825 442.282L259.708 360.183C273.388 326.027 246.846 288.264 212.235 292.639L127.072 303.406C92.4603 307.782 76.1515 350.963 97.9019 380.639L150.182 451.972Z" fill="url(#paint1_linear_324_87)"/>
<path d="M34.948 172.185C35.7148 165.653 41.6317 160.979 48.1637 161.746C54.6958 162.513 59.3694 168.43 58.6026 174.962L52.7122 225.138C51.9453 231.67 46.0284 236.344 39.4964 235.577C32.9643 234.81 28.2907 228.893 29.0575 222.361L34.948 172.185Z" fill="#00429D"/>
<path d="M45.6989 185.817C53.1126 122.665 109.113 77.3383 170.779 84.5776L218.419 90.1703C280.085 97.4095 325.452 142.664 318.038 205.816L312.758 250.793C308.706 285.316 278.092 310.094 244.381 306.137L95.5058 288.66C61.7949 284.702 37.7523 253.508 41.8051 218.985L45.6989 185.817Z" fill="#00429D"/>
<path d="M54.8047 169.243C61.153 115.166 110.867 76.5602 165.845 83.0142L208.318 88.0003C263.295 94.4543 302.717 143.524 296.369 197.601L291.848 236.114C288.377 265.676 261.2 286.78 231.146 283.252L98.4181 267.67C68.3637 264.142 46.8131 237.317 50.2835 207.756L54.8047 169.243Z" fill="#0258CC"/>
<path d="M303.632 200.73C304.436 193.88 312.79 189.232 322.291 190.348C331.792 191.463 338.842 197.92 338.038 204.769L331.862 257.381C331.058 264.23 322.704 268.878 313.203 267.763C303.702 266.648 296.651 260.191 297.455 253.342L303.632 200.73Z" fill="#0258CC"/>
<path d="M215.305 122.623C243.506 141.981 260.297 175.933 256.032 212.266C252.681 240.81 226.825 261.234 198.281 257.883L110.261 247.55C81.7167 244.199 61.2934 218.343 64.6443 189.798C68.8392 154.065 92.3147 125.29 123.452 112.648C135.408 116.683 150.508 120.019 167.077 121.964C185.28 124.101 202.147 124.196 215.305 122.623Z" fill="#C0C7FF"/>
<path d="M41.1523 275.681C42.5035 286.369 34.9344 296.129 24.2461 297.48C13.5579 298.832 3.7979 291.263 2.44662 280.574C1.09535 269.886 8.66448 260.126 19.3527 258.775C30.041 257.424 39.801 264.993 41.1523 275.681Z" fill="#0258CC"/>
<path d="M218.989 122.79C243.885 142.293 258.322 173.92 254.365 207.627C251.063 235.752 225.587 255.875 197.463 252.574L107.923 242.062C79.7985 238.761 59.676 213.284 62.9777 185.16C66.8577 152.109 87.4777 125.099 115.368 111.61C128.044 116.575 145.391 120.743 164.742 123.015C185.856 125.493 205.173 125.223 218.989 122.79Z" fill="white"/>
<ellipse cx="168.391" cy="113.845" rx="57.3775" ry="11.9085" transform="rotate(6.69555 168.391 113.845)" fill="#0258CC"/>
<path d="M214.988 98.4923C238.24 75.336 245.533 39.7533 246.547 15.6902C246.794 9.8232 240.224 7.03545 236.294 11.3991C213.319 36.9117 206.105 71.3842 205.104 93.9662C204.856 99.5798 211.007 102.458 214.988 98.4923Z" fill="#0258CC"/>
<path d="M148.346 83.6633C162.327 56.5968 157.234 24.9974 150.127 5.00487C148.394 0.130354 141.321 0.16408 139.109 5.10572C126.176 33.9978 130.971 64.6635 137.594 83.4428C139.24 88.1111 145.952 88.2979 148.346 83.6633Z" fill="#0258CC"/>
<mask id="path-14-inside-1_324_87" fill="white">
<path d="M97.5954 159.155C98.3623 152.623 104.279 147.95 110.811 148.717C117.343 149.483 122.017 155.4 121.25 161.932L117.043 197.773C116.276 204.305 110.359 208.978 103.827 208.212C97.2948 207.445 92.6211 201.528 93.388 194.996L97.5954 159.155Z"/>
</mask>
<path d="M121.25 161.932L94.7385 158.82L90.5311 194.66L117.043 197.773L143.554 200.885L147.762 165.045L121.25 161.932ZM93.388 194.996L119.9 198.108L124.107 162.268L97.5954 159.155L71.0839 156.043L66.8764 191.884L93.388 194.996ZM103.827 208.212L106.939 181.7C115.049 182.652 120.852 189.998 119.9 198.108L93.388 194.996L66.8764 191.884C64.3907 213.057 79.5406 232.237 100.715 234.723L103.827 208.212ZM117.043 197.773L90.5311 194.66C91.4831 186.551 98.8293 180.748 106.939 181.7L103.827 208.212L100.715 234.723C121.888 237.209 141.068 222.059 143.554 200.885L117.043 197.773ZM110.811 148.717L107.699 175.228C99.589 174.276 93.7865 166.93 94.7385 158.82L121.25 161.932L147.762 165.045C150.247 143.871 135.097 124.691 113.924 122.205L110.811 148.717ZM110.811 148.717L113.924 122.205C92.7495 119.719 73.5696 134.869 71.0839 156.043L97.5954 159.155L124.107 162.268C123.155 170.378 115.809 176.18 107.699 175.228L110.811 148.717Z" fill="black" mask="url(#path-14-inside-1_324_87)"/>
<mask id="path-16-inside-2_324_87" fill="white">
<path d="M155.889 166.491C156.656 159.959 162.573 155.286 169.105 156.053C175.637 156.819 180.311 162.736 179.544 169.268L175.337 205.109C174.57 211.641 168.653 216.314 162.121 215.548C155.589 214.781 150.915 208.864 151.682 202.332L155.889 166.491Z"/>
</mask>
<path d="M179.544 169.268L153.032 166.156L148.825 201.996L175.337 205.109L201.848 208.221L206.056 172.381L179.544 169.268ZM151.682 202.332L178.193 205.444L182.401 169.604L155.889 166.491L129.378 163.379L125.17 199.219L151.682 202.332ZM162.121 215.548L165.233 189.036C173.343 189.988 179.146 197.334 178.193 205.444L151.682 202.332L125.17 199.219C122.685 220.393 137.834 239.573 159.008 242.059L162.121 215.548ZM175.337 205.109L148.825 201.996C149.777 193.886 157.123 188.084 165.233 189.036L162.121 215.548L159.008 242.059C180.182 244.545 199.362 229.395 201.848 208.221L175.337 205.109ZM169.105 156.053L165.993 182.564C157.883 181.612 152.08 174.266 153.032 166.156L179.544 169.268L206.056 172.381C208.541 151.207 193.391 132.027 172.217 129.541L169.105 156.053ZM169.105 156.053L172.217 129.541C151.043 127.055 131.864 142.205 129.378 163.379L155.889 166.491L182.401 169.604C181.449 177.714 174.103 183.516 165.993 182.564L169.105 156.053Z" fill="black" mask="url(#path-16-inside-2_324_87)"/>
<path d="M112.186 158.69C111.837 161.659 109.148 163.784 106.179 163.435C103.21 163.086 101.085 160.397 101.434 157.428C101.782 154.459 104.472 152.334 107.441 152.683C110.41 153.031 112.534 155.721 112.186 158.69Z" fill="white"/>
<path d="M170.479 166.027C170.13 168.996 167.441 171.12 164.472 170.772C161.503 170.423 159.378 167.734 159.727 164.765C160.075 161.796 162.765 159.671 165.734 160.02C168.703 160.368 170.827 163.058 170.479 166.027Z" fill="white"/>
<path d="M227.303 322.783C226.84 319.77 224.019 317.704 221.003 318.168L196.972 321.862C193.955 322.326 191.886 325.144 192.349 328.156L197.8 363.614C198.263 366.627 201.083 368.693 204.1 368.23L228.131 364.535C231.147 364.072 233.217 361.254 232.754 358.241L227.303 322.783Z" fill="#1B1C23"/>
<path d="M226.792 323.201C226.329 320.188 223.508 318.122 220.492 318.586L196.461 322.28C193.445 322.744 191.375 325.562 191.838 328.574L197.289 364.032C197.752 367.045 200.573 369.111 203.589 368.648L227.62 364.953C230.636 364.49 232.706 361.672 232.243 358.659L226.792 323.201Z" fill="#231B58"/>
<path d="M222.628 328.756C222.166 325.751 219.38 323.686 216.405 324.143L200.784 326.545C197.809 327.002 195.772 329.809 196.234 332.814L199.496 354.033C199.958 357.038 202.744 359.103 205.719 358.646L221.34 356.244C224.315 355.787 226.352 352.98 225.89 349.975L222.628 328.756Z" fill="#D7D1ED"/>
<path d="M272.186 332.926C291.488 342.991 301.138 363.456 307.06 406.325" stroke="#333333" stroke-width="18.4096" stroke-linecap="round"/>
<path d="M288.848 408.507C287.496 419.195 295.066 428.955 305.754 430.307C316.442 431.658 326.202 424.089 327.553 413.401C328.905 402.712 321.336 392.952 310.647 391.601C299.959 390.25 290.199 397.819 288.848 408.507Z" fill="#0258CC"/>
<path d="M221.186 328.819C220.725 325.814 217.938 323.749 214.964 324.206L199.343 326.607C196.368 327.065 194.331 329.871 194.793 332.876L198.054 354.095C198.516 357.1 201.302 359.165 204.277 358.708L219.898 356.307C222.873 355.849 224.91 353.043 224.448 350.038L221.186 328.819Z" fill="white"/>
<defs>
<linearGradient id="paint0_linear_324_87" x1="180.179" y1="296.69" x2="201.984" y2="469.168" gradientUnits="userSpaceOnUse">
<stop stop-color="#022C66"/>
<stop offset="1" stop-color="#0348A5"/>
</linearGradient>
<linearGradient id="paint1_linear_324_87" x1="169.653" y1="298.023" x2="191.459" y2="470.501" gradientUnits="userSpaceOnUse">
<stop stop-color="#00429D"/>
<stop offset="1" stop-color="#0258CC"/>
</linearGradient>
</defs>
</svg>
