<svg width="395" height="556" viewBox="0 0 395 556" fill="none" xmlns="http://www.w3.org/2000/svg">
<path d="M289.086 342.101C301.87 330.877 333.182 310.719 356.857 299.789" stroke="#333333" stroke-width="18.41" stroke-linecap="round"/>
<path d="M256.104 437.769C235.494 468.49 188.03 466.855 169.584 434.787L124.178 355.85C105.288 323.01 130.879 283.073 169.951 284.42L266.089 287.733C305.161 289.079 327.943 330.683 306.836 362.145L256.104 437.769Z" fill="url(#paint0_linear_324_88)"/>
<path d="M262.484 425.404C244.066 453.57 201.711 452.11 185.276 422.743L144.822 350.452C127.991 320.377 150.862 283.763 185.728 284.965L271.518 287.922C306.384 289.123 326.68 327.224 307.819 356.07L262.484 425.404Z" fill="url(#paint1_linear_324_88)"/>
<path d="M371.848 189.157C371.962 182.581 366.724 177.157 360.148 177.043C353.572 176.929 348.149 182.167 348.035 188.743L347.158 239.257C347.044 245.833 352.282 251.256 358.858 251.37C365.434 251.484 370.857 246.246 370.971 239.67L371.848 189.157Z" fill="#00429D"/>
<path d="M359.369 201.227C360.473 137.651 311.042 85.2387 248.961 84.1611L201.001 83.3286C138.921 82.251 87.9066 121.028 86.803 184.604L86.0171 229.883C85.4138 264.638 112.436 293.29 146.374 293.879L296.249 296.481C330.186 297.07 358.187 269.373 358.79 234.618L359.369 201.227Z" fill="#00429D"/>
<path d="M352.563 183.584C353.508 129.144 309.407 84.2329 254.06 83.2722L211.302 82.5299C155.955 81.5692 110.322 124.923 109.377 179.362L108.704 218.134C108.187 247.894 132.296 272.446 162.552 272.971L296.171 275.29C326.427 275.816 351.374 252.116 351.89 222.355L352.563 183.584Z" fill="#0258CC"/>
<path d="M101.761 181.491C101.881 174.595 94.2236 168.871 84.6586 168.705C75.0937 168.539 67.2427 173.994 67.123 180.889L66.2036 233.855C66.0839 240.75 73.7408 246.474 83.3058 246.64C92.8708 246.806 100.722 241.351 100.841 234.456L101.761 181.491Z" fill="#0258CC"/>
<path d="M199.745 115.906C169.207 131.317 148.023 162.716 147.388 199.293C146.89 228.029 169.781 251.729 198.517 252.228L287.127 253.766C315.863 254.264 339.563 231.374 340.062 202.638C340.686 166.664 321.272 135.007 292.107 118.312C279.718 120.711 264.307 121.996 247.627 121.707C229.302 121.389 212.574 119.225 199.745 115.906Z" fill="#C0C7FF"/>
<path d="M351.85 290.891C349.081 301.303 355.276 311.988 365.687 314.757C376.098 317.527 386.783 311.331 389.553 300.92C392.322 290.509 386.127 279.824 375.716 277.054C365.304 274.285 354.619 280.48 351.85 290.891Z" fill="#0258CC"/>
<path d="M196.071 115.579C168.79 131.574 150.251 160.985 149.662 194.919C149.17 223.232 171.724 246.584 200.037 247.075L290.178 248.64C318.492 249.132 341.842 226.577 342.334 198.263C342.911 164.991 326.091 135.465 300.256 118.365C287.03 121.589 269.281 123.398 249.801 123.06C228.545 122.691 209.437 119.838 196.071 115.579Z" fill="white"/>
<ellipse cx="57.3775" cy="11.9085" rx="57.3775" ry="11.9085" transform="matrix(-0.999849 -0.0173558 -0.0173558 0.999849 304.987 102.574)" fill="#0258CC"/>
<path d="M203.288 92.0346C183.344 65.9752 180.878 29.7365 183.093 5.75417C183.633 -0.0931306 190.517 -1.97663 193.828 2.87358C213.182 31.2312 215.719 66.3589 213.688 88.8718C213.184 94.4682 206.703 96.4969 203.288 92.0346Z" fill="#0258CC"/>
<path d="M271.315 86.2561C261.082 57.5623 270.358 26.9286 280.076 8.0668C282.445 3.46799 289.45 4.44794 290.981 9.64114C299.932 40.0041 291.076 69.7522 282 87.4764C279.744 91.8824 273.067 91.1694 271.315 86.2561Z" fill="#0258CC"/>
<mask id="path-14-inside-1_324_88" fill="white">
<path d="M311.507 167.861C311.621 161.285 306.383 155.862 299.807 155.747C293.231 155.633 287.808 160.872 287.694 167.447L287.067 203.529C286.953 210.104 292.192 215.528 298.767 215.642C305.343 215.756 310.767 210.518 310.881 203.942L311.507 167.861Z"/>
</mask>
<path d="M287.694 167.447L314.383 167.911L313.757 203.992L287.067 203.529L260.378 203.065L261.004 166.984L287.694 167.447ZM310.881 203.942L284.191 203.479L284.818 167.398L311.507 167.861L338.197 168.324L337.57 204.405L310.881 203.942ZM298.767 215.642L299.231 188.952C291.066 188.811 284.333 195.314 284.191 203.479L310.881 203.942L337.57 204.405C337.2 225.721 319.62 242.702 298.304 242.332L298.767 215.642ZM287.067 203.529L313.757 203.992C313.899 195.827 307.395 189.094 299.231 188.952L298.767 215.642L298.304 242.332C276.988 241.962 260.008 224.381 260.378 203.065L287.067 203.529ZM299.807 155.747L299.344 182.437C307.508 182.579 314.242 176.075 314.383 167.911L287.694 167.447L261.004 166.984C261.374 145.668 278.954 128.688 300.27 129.058L299.807 155.747ZM299.807 155.747L300.27 129.058C321.587 129.428 338.567 147.008 338.197 168.324L311.507 167.861L284.818 167.398C284.676 175.562 291.179 182.295 299.344 182.437L299.807 155.747Z" fill="black" mask="url(#path-14-inside-1_324_88)"/>
<mask id="path-16-inside-2_324_88" fill="white">
<path d="M252.756 167.331C252.87 160.755 247.632 155.331 241.056 155.217C234.48 155.103 229.056 160.341 228.942 166.917L228.316 202.998C228.202 209.574 233.44 214.998 240.016 215.112C246.592 215.226 252.015 209.988 252.129 203.412L252.756 167.331Z"/>
</mask>
<path d="M228.942 166.917L255.632 167.38L255.006 203.462L228.316 202.998L201.626 202.535L202.253 166.454L228.942 166.917ZM252.129 203.412L225.44 202.948L226.066 166.867L252.756 167.331L279.445 167.794L278.819 203.875L252.129 203.412ZM240.016 215.112L240.479 188.422C232.315 188.28 225.582 194.784 225.44 202.948L252.129 203.412L278.819 203.875C278.449 225.191 260.869 242.171 239.553 241.801L240.016 215.112ZM228.316 202.998L255.006 203.462C255.147 195.297 248.644 188.564 240.479 188.422L240.016 215.112L239.553 241.801C218.237 241.431 201.256 223.851 201.626 202.535L228.316 202.998ZM241.056 155.217L240.592 181.907C248.757 182.048 255.49 175.545 255.632 167.38L228.942 166.917L202.253 166.454C202.623 145.138 220.203 128.158 241.519 128.528L241.056 155.217ZM241.056 155.217L241.519 128.528C262.835 128.898 279.815 146.478 279.445 167.794L252.756 167.331L226.066 166.867C225.924 175.032 232.428 181.765 240.592 181.907L241.056 155.217Z" fill="black" mask="url(#path-16-inside-2_324_88)"/>
<path d="M297.11 165.448C297.058 168.437 299.439 170.902 302.428 170.954C305.417 171.006 307.882 168.625 307.934 165.636C307.986 162.647 305.605 160.182 302.616 160.13C299.627 160.078 297.162 162.459 297.11 165.448Z" fill="white"/>
<path d="M238.36 164.919C238.308 167.908 240.689 170.373 243.678 170.425C246.667 170.477 249.132 168.096 249.184 165.106C249.236 162.117 246.855 159.652 243.866 159.6C240.877 159.549 238.411 161.93 238.36 164.919Z" fill="white"/>
<path d="M251.304 309.905C251.491 306.863 254.111 304.548 257.157 304.735L281.425 306.222C284.471 306.409 286.789 309.027 286.603 312.069L284.408 347.876C284.222 350.918 281.601 353.233 278.555 353.047L254.287 351.559C251.241 351.372 248.923 348.755 249.11 345.712L251.304 309.905Z" fill="#1B1C23"/>
<path d="M251.851 310.274C252.038 307.232 254.658 304.917 257.704 305.104L281.972 306.591C285.018 306.778 287.336 309.396 287.15 312.438L284.955 348.245C284.768 351.288 282.148 353.603 279.102 353.416L254.834 351.928C251.788 351.742 249.47 349.124 249.656 346.081L251.851 310.274Z" fill="#231B58"/>
<path d="M256.505 315.427C256.691 312.393 259.277 310.082 262.281 310.266L278.056 311.233C281.06 311.417 283.345 314.026 283.159 317.061L281.845 338.489C281.659 341.524 279.073 343.834 276.069 343.65L260.294 342.683C257.29 342.499 255.006 339.89 255.192 336.855L256.505 315.427Z" fill="#D7D1ED"/>
<path d="M131.227 317.347C109.637 320.129 93.5145 336.003 73.155 374.191" stroke="#333333" stroke-width="18.4096" stroke-linecap="round"/>
<path d="M88.6085 389.378C88.5173 400.151 79.7103 408.811 68.9373 408.719C58.1644 408.628 49.505 399.821 49.5961 389.048C49.6872 378.275 58.4943 369.616 69.2673 369.707C80.0402 369.798 88.6996 378.605 88.6085 389.378Z" fill="#0258CC"/>
<path d="M257.946 315.358C258.132 312.323 260.718 310.013 263.722 310.197L279.497 311.164C282.501 311.348 284.786 313.957 284.6 316.992L283.286 338.42C283.1 341.454 280.514 343.765 277.51 343.581L261.735 342.614C258.731 342.43 256.446 339.82 256.632 336.786L257.946 315.358Z" fill="white"/>
<rect y="431.065" width="181.916" height="125.103" rx="25" transform="rotate(-4.00456 0 431.065)" fill="#513232"/>
<path d="M53.5 422.361C53.5 397.361 104.5 375.86 123.5 416.361" stroke="#513232" stroke-width="18.41" stroke-linecap="round"/>
<rect x="8.51562" y="422.066" width="181.916" height="125.103" rx="25" transform="rotate(-4.00456 8.51562 422.066)" fill="#B45050"/>
<rect x="8.51562" y="422.066" width="181.916" height="73.656" rx="25" transform="rotate(-4.00456 8.51562 422.066)" fill="#FF8080"/>
<defs>
<linearGradient id="paint0_linear_324_88" x1="218.02" y1="286.076" x2="212.032" y2="459.824" gradientUnits="userSpaceOnUse">
<stop stop-color="#022C66"/>
<stop offset="1" stop-color="#0348A5"/>
</linearGradient>
<linearGradient id="paint1_linear_324_88" x1="228.623" y1="286.443" x2="223.136" y2="445.648" gradientUnits="userSpaceOnUse">
<stop stop-color="#00429D"/>
<stop offset="1" stop-color="#0258CC"/>
</linearGradient>
</defs>
</svg>
